<svg width="192" height="192" viewBox="0 0 192 192" fill="none" xmlns="http://www.w3.org/2000/svg">
<g clip-path="url(#clip0_984_17)">
<path fill-rule="evenodd" clip-rule="evenodd" d="M91.8607 190.602L92.5244 190.981L92.7899 191.133C93.8427 191.702 95.0207 192 96.2175 192C97.4143 192 98.5923 191.702 99.645 191.133L99.9105 190.99L100.584 190.602C104.292 188.403 107.911 186.055 111.431 183.566C120.543 177.132 129.057 169.89 136.869 161.927C155.301 143.058 174.444 114.706 174.444 78.2281C174.444 57.4807 166.203 37.5831 151.534 22.9125C136.864 8.24186 116.968 0 96.2222 0C75.4764 0 55.5803 8.24186 40.9108 22.9125C26.2412 37.5831 18 57.4807 18 78.2281C18 114.697 37.1526 143.058 55.5751 161.927C63.3845 169.889 71.8953 177.131 81.0045 183.566C84.5275 186.056 88.1492 188.403 91.8607 190.602ZM96.2222 106.675C103.766 106.675 111.001 103.678 116.335 98.3429C121.67 93.0081 124.667 85.7726 124.667 78.2281C124.667 70.6836 121.67 63.4481 116.335 58.1133C111.001 52.7786 103.766 49.7815 96.2222 49.7815C88.6783 49.7815 81.4433 52.7786 76.109 58.1133C70.7746 63.4481 67.7778 70.6836 67.7778 78.2281C67.7778 85.7726 70.7746 93.0081 76.109 98.3429C81.4433 103.678 88.6783 106.675 96.2222 106.675Z" fill="#16A34A"/>
</g>
<defs>
<clipPath id="clip0_984_17">
<rect width="192" height="192" fill="white"/>
</clipPath>
</defs>
</svg>
