<svg width="192" height="192" viewBox="0 0 192 192" fill="none" xmlns="http://www.w3.org/2000/svg">
<g clip-path="url(#clip0_985_25)">
<path d="M39.5 37.5L93.5 9.5L115 13.5L159.5 47.5V106L108.5 177L81 171.5L30.5 102.5L39.5 37.5Z" fill="white"/>
<path d="M106.455 176.628C103.137 178.976 99.7261 181.191 96.2309 183.267L96.1686 183.303L96.0882 183.257C92.5947 181.184 89.1855 178.972 85.8687 176.626L85.867 176.625C77.1838 170.487 69.0706 163.579 61.6258 155.984C43.999 137.915 26.5 111.575 26.5 78.2281C26.5 59.7329 33.8416 41.9966 46.9076 28.9206C59.9734 15.8447 77.693 8.5 96.1679 8.5C114.643 8.5 132.363 15.8447 145.428 28.9206C158.494 41.9966 165.836 59.7329 165.836 78.2281C165.836 111.585 148.346 137.915 130.712 155.982C123.264 163.578 115.148 170.486 106.461 176.624L106.455 176.628ZM96.1679 115.175C105.963 115.175 115.356 111.281 122.28 104.351C129.204 97.4216 133.093 88.0248 133.093 78.2281C133.093 68.4314 129.204 59.0346 122.28 52.1052C115.356 45.1757 105.963 41.2815 96.1679 41.2815C86.3728 41.2815 76.9801 45.1757 70.0559 52.1052C63.1319 59.0346 59.2432 68.4314 59.2432 78.2281C59.2432 88.0248 63.1319 97.4216 70.0559 104.351C76.9801 111.281 86.3728 115.175 96.1679 115.175Z" stroke="#2563EB" stroke-width="17"/>
<path d="M122.061 105.038L149.42 132.397" stroke="#2563EB" stroke-width="17" stroke-linecap="round"/>
<circle cx="96.1679" cy="78.2551" r="36.8022" stroke="#2563EB" stroke-width="17"/>
</g>
<defs>
<clipPath id="clip0_985_25">
<rect width="192" height="192" fill="white"/>
</clipPath>
</defs>
</svg>
