<svg width="192" height="192" viewBox="0 0 192 192" fill="none" xmlns="http://www.w3.org/2000/svg">
<g clip-path="url(#clip0_983_5)">
<path d="M36 44.5L95.5 18L155.5 42.5C155.5 42.5 153 115.3 153 116.5C153 117.7 101 138.5 101 138.5L36 114V44.5Z" fill="white"/>
<path d="M36 44.5L95.5 62.5L155.5 42.5C155.5 42.5 153 115.3 153 116.5C153 117.7 98.5 137.5 98.5 137.5L36 114V44.5Z" fill="white"/>
<path fill-rule="evenodd" clip-rule="evenodd" d="M89.3498 6.03635C85.9803 7.45422 83.3493 9.25309 77.2 14.3442C66.3646 23.3142 59.4362 27.8716 51.2085 31.4391C40.2317 36.1986 27.4222 38.7782 11.1667 39.5031C4.39803 39.805 4 39.8741 4 40.7426C4 41.8733 5.47086 44.4122 9.74437 50.6599C15.8186 59.5399 24.8318 76.0851 26.6911 81.768C27.1614 83.2046 28.0618 84.7149 28.8898 85.4545C30.2061 86.6304 30.2596 86.8019 29.7568 88.2376C29.4622 89.0792 29.0806 90.7966 28.909 92.0544C28.7375 93.3122 28.2095 94.983 27.736 95.7674C27.2625 96.5518 26.8695 97.7867 26.8626 98.5117C26.8517 99.6899 26.5332 99.9716 23.8614 101.165C17.1559 104.16 12.5667 111.292 11.551 120.296C10.5322 129.328 17.3558 138.935 28.9338 144.767C30.4435 145.527 32.5805 146.42 33.6826 146.749C35.5314 147.302 35.7889 147.576 37.0018 150.279C44.5043 166.996 63.8309 180.553 86.9726 185.332C96.6273 187.326 109.319 184.823 122.79 178.271C136.089 171.801 146.19 162.368 151.561 151.402L153.439 147.566L157.075 146.1C165.964 142.517 173.743 135.282 176.528 128.007C177.952 124.286 177.979 117.065 176.585 112.582C174.713 106.562 170.736 101.972 165.314 99.5742C163.477 98.7619 163.21 98.4664 163.21 97.2493C163.21 96.4823 162.806 95.2867 162.311 94.5924C161.816 93.8981 161.143 92.1166 160.815 90.6338C160.314 88.3689 160.048 87.9138 159.149 87.7853L158.08 87.6329L159.207 86.4131C159.855 85.7124 160.946 83.2723 161.773 80.6753C164.41 72.3977 171.898 58.1673 176.966 51.8052C178.167 50.2959 180.323 47.9289 181.756 46.5454C184.293 44.0943 187 40.7883 187 40.1398C187 39.9628 184.169 39.6737 180.709 39.4981C164.441 38.6711 151.672 35.6895 139.649 29.9105C132.732 26.5863 127.847 23.4752 117.689 15.9258C112.47 12.0472 107.293 8.61184 104.733 7.3289C100.725 5.3201 100.218 5.18334 96.2691 5.04247C92.6127 4.91166 91.7165 5.04064 89.3498 6.03635ZM77.2 37.6448C77.2 45.0973 77.3061 46.3322 78.0766 47.842C79.7387 51.0995 84.4129 54.7086 91.7252 58.3809L95.4991 60.2763L99.7314 58.1536C104.952 55.5351 107.439 53.8904 110.29 51.1694C113.773 47.8452 113.8 47.7428 113.8 37.8781V29.165H95.5H77.2V37.6448ZM77.6575 65.1053C60.6019 66.9563 58.7742 67.9985 48.4383 74.893C44.4274 77.5686 41.2327 80.5283 42.8875 80.0357C52.9035 77.0541 56.6486 78.254 72.846 77.2057C82.2691 76.5955 106.917 76.5964 116.324 77.207C130.794 78.146 133.77 77.776 143.465 80.3364C145.831 80.9607 147.833 81.4044 147.916 81.3221C147.998 81.2397 146.372 79.9294 144.302 78.4095C132.189 69.5176 131.031 67.1287 113.345 65.0536C106.132 64.2074 85.6596 64.2372 77.6575 65.1053ZM82.2325 86.3852C71.8564 87.0091 47.452 89.467 43.9169 90.2446C42.9534 90.4563 42.8875 90.7065 42.8875 94.151V97.8306L46.6985 99.5911C56.1399 103.952 70.5946 108.284 81.3175 109.967C88.5776 111.106 102.916 111.099 109.911 109.952C120.758 108.174 135.023 103.876 144.302 99.5911L148.113 97.8306V94.151C148.113 89.8082 149.253 90.3928 138.276 89.1075C113.617 86.2197 97.7843 85.4503 82.2325 86.3852Z" fill="#2563EB"/>
</g>
<defs>
<clipPath id="clip0_983_5">
<rect width="192" height="192" fill="white"/>
</clipPath>
</defs>
</svg>
